<?xml version="1.0" standalone="no"?><!DOCTYPE svg PUBLIC "-//W3C//DTD SVG 1.1//EN" "http://www.w3.org/Graphics/SVG/1.1/DTD/svg11.dtd"><svg t="1589704775574" class="icon" viewBox="0 0 1024 1024" version="1.1" xmlns="http://www.w3.org/2000/svg" p-id="5035" xmlns:xlink="http://www.w3.org/1999/xlink" width="200" height="200"><defs><style type="text/css"></style></defs><path d="M609.751 212.752l368.796 98.819q42.39 11.358 31.032 53.748L849.803 961.61q-11.358 42.39-53.748 31.032l-368.796-98.818q-42.39-11.359-31.032-53.75l159.775-596.29q11.359-42.39 53.75-31.032z" fill="#D8000F" p-id="5036"></path><path d="M609.751 212.752l368.796 98.819q42.39 11.358 31.032 53.748L849.803 961.61q-11.358 42.39-53.748 31.032l-368.796-98.818q-42.39-11.359-31.032-53.75l159.775-596.29q11.359-42.39 53.75-31.032z" fill="#D8000F" p-id="5037"></path><path d="M648.979 223.263c-23.412-6.273-47.476 7.621-53.748 31.033l-159.776 596.29c-6.273 23.411 7.621 47.475 31.031 53.75l-39.228-10.513c-23.411-6.272-37.304-30.336-31.031-53.748l159.776-596.29c6.272-23.413 30.336-37.306 53.748-31.033z" fill="#C40714" p-id="5038"></path><path d="M847.76 969.24c-5.146 19.198-24.878 30.59-44.077 25.447L419.628 891.78c-19.197-5.145-30.588-24.878-25.447-44.076 90.086-33.814 172.925-40.595 248.522-20.338C718.3 847.622 786.651 894.913 847.76 969.24z" fill="#FFE400" p-id="5039"></path><path d="M642.703 827.366c75.596 20.256 143.93 67.607 205.008 142.055a36.039 36.039 0 0 1-4.579 10.309c-60.727-73.491-128.605-120.288-203.637-140.392-75.596-20.256-158.452-13.416-248.568 20.52l2.018-0.756a36.014 36.014 0 0 1 1.039-10.639l0.15-0.578c90.117-33.935 172.973-40.776 248.568-20.52z" fill="#FFA700" p-id="5040"></path><path d="M565.472 232.476l-14.794 9.45 171.25 268.038a8.777 8.777 0 0 0 11.45 3.06L1015.82 366.08l-8.101-15.574-275.322 143.239-166.926-261.27z" fill="#FFE400" p-id="5041"></path><path d="M602.492 210.808L986.25 313.635c19.157 5.133 30.526 24.825 25.393 43.982l-282.615 147.58-171.081-268.672c5.199-19.403 25.143-30.918 44.547-25.719z" fill="#D8000F" p-id="5042"></path><path d="M638.357 220.417c-19.403-5.199-39.348 6.316-44.547 25.719l157.294 247.322-22.326 11.674-170.83-268.604c5.2-19.403 25.144-30.918 44.547-25.719z" fill="#C40714" p-id="5043"></path><path d="M980.82 303.092c28.092 7.528 44.764 36.405 37.236 64.5L858.282 963.88c-7.528 28.096-36.405 44.766-64.5 37.24l-368.796-98.819c-28.092-7.528-44.765-36.405-37.237-64.499l159.775-596.29c7.528-28.095 36.405-44.766 64.499-37.24l368.796 98.82z m-2.272 8.479L609.75 212.752c-23.412-6.273-47.476 7.622-53.748 31.032L396.227 840.075c-6.273 23.413 7.621 47.477 31.031 53.75l368.797 98.819c23.411 6.272 47.475-7.622 53.748-31.032l159.776-596.29c6.273-23.413-7.621-47.477-31.031-53.75z" fill="#91000A" p-id="5044"></path><path d="M677.642 490.673a53.394 53.394 0 1 0 103.15 27.64 53.394 53.394 0 1 0-103.15-27.64z" fill="#FFE400" p-id="5045"></path><path d="M743.358 453.004a54.782 54.782 0 0 1 5.944 1.962c-26.615-3.947-52.502 12.486-59.591 38.941-7.09 26.456 7.114 53.63 32.137 63.52a54.68 54.68 0 0 1-6.13-1.274c-28.66-7.68-45.709-36.995-38.077-65.48 7.633-28.483 37.055-45.349 65.717-37.669z" fill="#FFA700" p-id="5046"></path><path d="M52.182 152.127l450.75-120.779q42.391-11.358 53.75 31.032l193.093 720.636q11.359 42.39-31.031 53.749L267.993 957.543q-42.39 11.359-53.749-31.032L21.15 205.875q-11.358-42.39 31.032-53.748z" fill="#D8000F" p-id="5047"></path><path d="M52.182 152.127l450.75-120.779q42.391-11.358 53.75 31.032l193.093 720.636q11.359 42.39-31.031 53.749L267.993 957.543q-42.39 11.359-53.749-31.032L21.15 205.875q-11.358-42.39 31.032-53.748z" fill="#D8000F" p-id="5048"></path><path d="M98.812 139.633C75.4 145.905 61.506 169.969 67.78 193.38l193.091 720.636c6.275 23.411 30.339 37.305 53.75 31.031l-46.63 12.494c-23.412 6.275-47.476-7.62-53.748-31.031L21.15 205.875c-6.273-23.411 7.621-47.475 31.032-53.748z" fill="#C40714" p-id="5049"></path><path d="M750.117 784.287c6.085 22.71-7.392 46.051-30.102 52.137L266.72 957.884c-22.708 6.085-46.05-7.393-52.136-30.1 72.118-87.879 152.804-143.776 242.059-167.692 89.254-23.916 187.08-15.85 293.474 24.195z" fill="#FFE400" p-id="5050"></path><path d="M456.643 760.092c89.254-23.916 187.08-15.85 293.474 24.195a42.537 42.537 0 0 1 1.404 13.24c-105.474-39.274-202.503-47.042-291.093-23.304-89.254 23.915-169.94 79.812-242.057 167.69l1.618-1.961a42.5 42.5 0 0 1-5.217-11.491l-0.187-0.678c72.116-87.878 152.803-143.775 242.058-167.691z" fill="#FFA700" p-id="5051"></path><path d="M351.027 367.116L24.657 197.205l-8.105 15.57 333.514 173.63a8.777 8.777 0 0 0 11.46-3.078l201.876-317.65-14.816-9.416-197.559 310.855z" fill="#FFE400" p-id="5052"></path><path d="M51.257 152.374L504.383 30.96c22.611-6.06 45.852 7.358 51.91 29.97L354.416 378.578 20.903 204.949c-6.137-22.9 7.453-46.438 30.354-52.575z" fill="#D8000F" p-id="5053"></path><path d="M93.648 141.017c-22.901 6.135-36.491 29.674-30.355 52.575l307.085 159.87-15.961 25.118L20.903 204.948c-6.137-22.9 7.453-46.439 30.354-52.575z" fill="#C40714" p-id="5054"></path><path d="M500.661 22.87c28.095-7.528 56.971 9.145 64.498 37.239l193.094 720.635c7.528 28.095-9.143 56.971-37.237 64.498l-450.75 120.78c-28.096 7.527-56.973-9.145-64.5-37.24L12.672 208.148c-7.528-28.094 9.143-56.971 37.237-64.497L500.66 22.87z m2.272 8.479L52.183 152.127C28.77 158.4 14.877 182.464 21.15 205.875l193.094 720.636c6.273 23.411 30.337 37.306 53.749 31.031l450.75-120.777c23.413-6.273 37.305-30.337 31.033-53.749L556.682 62.381c-6.273-23.412-30.337-37.306-53.749-31.032z" fill="#91000A" p-id="5055"></path><path d="M294.363 394.67a62.903 62.903 0 1 0 121.52-32.56 62.903 62.903 0 1 0-121.52 32.56z" fill="#FFE400" p-id="5056"></path><path d="M338.842 317.63a63.567 63.567 0 0 1 7.176-1.488c-29.292 11.6-45.875 43.575-37.525 74.742 8.352 31.166 38.7 50.565 69.866 45.966a63.55 63.55 0 0 1-6.956 2.298c-33.556 8.992-68.049-10.921-77.04-44.478-8.992-33.558 10.924-68.05 44.48-77.04z" fill="#FFA700" p-id="5057"></path></svg>