<?xml version="1.0" standalone="no"?><!DOCTYPE svg PUBLIC "-//W3C//DTD SVG 1.1//EN" "http://www.w3.org/Graphics/SVG/1.1/DTD/svg11.dtd"><svg t="1589703616213" class="icon" viewBox="0 0 1024 1024" version="1.1" xmlns="http://www.w3.org/2000/svg" p-id="3302" xmlns:xlink="http://www.w3.org/1999/xlink" width="200" height="200"><defs><style type="text/css"></style></defs><path d="M0 512C0 229.2224 229.2224 0 512 0s512 229.2224 512 512-229.2224 512-512 512S0 794.7776 0 512z m671.1296 344.8576c-49.1008-22.656-109.5424-45.312-109.5424-45.312v-33.9968c60.416-22.656 105.7536-79.3088 117.0944-147.3024 11.3408-3.7888 33.9968-15.104 41.5488-49.1008l7.552-41.5488s3.7888-52.8896-37.76-41.5488c3.7632-33.9968 3.7632-71.7568 3.7632-101.9904-3.7632-56.6528-79.3088-86.8608-79.3088-86.8608l11.3152-15.104s-37.76-11.3408-52.864-3.7888l11.3152-26.4448s-75.52 0-117.0688 33.9968H463.36v-15.104s-128.4096 18.8928-124.6464 215.296c-41.5488-11.3408-37.76 41.5488-37.76 41.5488l7.552 41.5488c3.7632 33.9968 26.4448 45.312 41.5488 49.1008 11.3152 71.7568 56.6528 128.4096 117.0944 147.3024v33.9968s-60.4416 26.4448-109.568 45.312c-26.4192 11.3408-52.864 30.208-71.7312 52.8896 60.416 45.312 139.7504 67.9936 226.6112 67.9936 86.8864 0 166.1952-22.6816 234.1888-64.2304-18.8928-26.4192-45.312-41.5488-75.5456-56.6528z" fill="#ff8198" p-id="3303"></path></svg>