<?xml version="1.0" standalone="no"?><!DOCTYPE svg PUBLIC "-//W3C//DTD SVG 1.1//EN" "http://www.w3.org/Graphics/SVG/1.1/DTD/svg11.dtd"><svg t="1588772706667" class="icon" viewBox="0 0 1025 1024" version="1.1" xmlns="http://www.w3.org/2000/svg" p-id="2273" xmlns:xlink="http://www.w3.org/1999/xlink" width="200.1953125" height="200"><defs><style type="text/css"></style></defs><path d="M1019.1056 384c-11.286-32.011-39.713-55.051-74.195-60.127l-243.222-35.64L596.0606 72.215c-15.271-31.276-48.262-51.49-84.057-51.49-35.707 0-68.653 20.214-83.968 51.49L322.3636 288.256l-243.2 35.684c-34.505 4.964-62.954 27.982-74.24 60.171-11.264 32.501-2.872 67.807 21.882 92.138l178.51 175.638-41.405 243.378c-5.81 33.926 9.282 68.72 38.555 88.688 28.628 19.255 67.006 21.37 97.837 5.164l211.745-112.395 211.88 112.417c13.712 7.235 29.094 11.064 44.521 11.064 19.01 0 37.42-5.61 53.337-16.317 29.14-19.879 44.21-54.65 38.4-88.576l-41.383-243.4L997.3346 476.27c24.71-24.353 33.102-59.681 21.771-92.271z m-53.047 60.527L770.9646 636.483l45.278 266.329c2.939 17.096-4.586 34.059-19.478 44.232-15.249 10.24-35.818 11.331-52.046 2.783L512.0036 826.323 279.4666 949.76c-16.406 8.637-36.998 7.48-52.046-2.671-15.048-10.263-22.573-27.248-19.634-44.344l45.3-266.284L58.0166 444.505c-12.377-12.154-16.607-29.718-11.064-45.724 5.766-16.384 20.525-28.182 38.623-30.787l266.485-39.112L468.0386 91.76c7.88-16.117 25.154-26.535 43.987-26.535 18.9 0 36.174 10.396 44.054 26.513L672.0366 328.86l266.418 39.023c18.076 2.671 32.902 14.514 38.645 30.81 5.565 16.094 1.336 33.635-11.041 45.834z" p-id="2274"></path><path d="M509.0426 376.899c-45.59 0-82.32 13.913-109.123 41.316-44.744 45.746-43.787 112.195-43.72 115.022 0.267 12.11 10.173 21.726 22.239 21.726h0.423c12.265-0.222 22.016-10.373 21.838-22.639 0-0.512-0.401-51.066 31.254-83.189 18.098-18.387 44.054-27.692 77.067-27.692 12.288 0 22.26-9.973 22.26-22.261s-9.95-22.283-22.238-22.283z" p-id="2275"></path></svg>