<?xml version="1.0" standalone="no"?><!DOCTYPE svg PUBLIC "-//W3C//DTD SVG 1.1//EN" "http://www.w3.org/Graphics/SVG/1.1/DTD/svg11.dtd"><svg t="1588398503250" class="icon" viewBox="0 0 1024 1024" version="1.1" xmlns="http://www.w3.org/2000/svg" p-id="3638" xmlns:xlink="http://www.w3.org/1999/xlink" width="200" height="200"><defs><style type="text/css"></style></defs><path d="M718.917969 423.076761h-118.309502V305.104514a88.968207 88.968207 0 0 0-88.92324-89.058141 88.968207 88.968207 0 0 0-88.923239 89.058141v117.972247H305.104514a88.945723 88.945723 0 0 0 0 177.846478h117.657474v117.99473a88.945723 88.945723 0 0 0 177.846479 0v-117.99473h118.309502a88.968207 88.968207 0 0 0 89.058142-88.923239 88.99069 88.99069 0 0 0-89.058142-88.923239z" p-id="3639" fill="#2c2c2c"></path><path d="M512 0C229.244335 0 0 229.221851 0 511.977516 0 794.800632 229.244335 1024 512 1024c282.800632 0 512-229.199368 512-512C1024.022484 229.221851 794.800632 0 512 0z m0 890.446513c-208.671702 0-378.446513-169.752327-378.446513-378.446513 0-208.671702 169.752327-378.446513 378.446513-378.446513s378.446513 169.752327 378.446513 378.446513c0 208.671702-169.752327 378.446513-378.446513 378.446513z" p-id="3640" fill="#2c2c2c"></path></svg>