<?xml version="1.0" standalone="no"?><!DOCTYPE svg PUBLIC "-//W3C//DTD SVG 1.1//EN" "http://www.w3.org/Graphics/SVG/1.1/DTD/svg11.dtd"><svg t="1593586377864" class="icon" viewBox="0 0 1024 1024" version="1.1" xmlns="http://www.w3.org/2000/svg" p-id="1188" xmlns:xlink="http://www.w3.org/1999/xlink" width="200" height="200"><defs><style type="text/css"></style></defs><path d="M852 399.55c0 120.46-166.34 375.35-245.31 489.59-19.67 28.45-61.74 28.45-81.41 0-78.97-114.24-245.31-369.13-245.31-489.59 0-157.96 128.05-286.02 286.02-286.02S852 241.58 852 399.55z" fill="#ff8198" p-id="1189"></path><path d="M478.02 930.47c-22.82 0-44.18-11.2-57.15-29.96-41.75-60.38-102.24-151.76-153.32-244.15C204.14 541.7 172 455.3 172 399.55c0-81.74 31.83-158.59 89.63-216.39 57.8-57.8 134.65-89.63 216.39-89.63s158.59 31.83 216.39 89.63c57.8 57.8 89.63 134.65 89.63 216.39 0 55.76-32.14 142.16-95.54 256.81-51.09 92.39-111.58 183.77-153.32 244.15a69.52 69.52 0 0 1-57.16 29.96z m0-796.94c-71.06 0-137.86 27.67-188.1 77.91C239.67 261.69 212 328.49 212 399.55c0 60.92 49.24 162.75 90.54 237.45 50.29 90.95 109.99 181.13 151.22 240.76 5.58 8.08 14.42 12.71 24.25 12.71s18.67-4.63 24.25-12.71C543.5 818.12 603.2 727.95 653.49 637c41.31-74.7 90.54-176.54 90.54-237.45 0-71.06-27.67-137.86-77.91-188.1-50.25-50.25-117.05-77.92-188.1-77.92z" fill="#ff8198" p-id="1190"></path><path d="M478.02 530.42c-60.12 0-109.03-48.91-109.03-109.03s48.91-109.03 109.03-109.03 109.03 48.91 109.03 109.03-48.92 109.03-109.03 109.03z m0-178.05c-38.06 0-69.03 30.96-69.03 69.03 0 38.06 30.96 69.03 69.03 69.03s69.03-30.96 69.03-69.03c-0.01-38.07-30.97-69.03-69.03-69.03z" fill="#ff8198" p-id="1191"></path></svg>