<?xml version="1.0" standalone="no"?><!DOCTYPE svg PUBLIC "-//W3C//DTD SVG 1.1//EN" "http://www.w3.org/Graphics/SVG/1.1/DTD/svg11.dtd"><svg t="1590507650403" class="icon" viewBox="0 0 1024 1024" version="1.1" xmlns="http://www.w3.org/2000/svg" p-id="2783" xmlns:xlink="http://www.w3.org/1999/xlink" width="200" height="200"><defs><style type="text/css"></style></defs><path d="M492.49 372.91l26.73 24.47-13.36 14.46H678.4l0.55 40.06-107.4 0.55v51.75l106.27 1.68v26.15H572.09l-0.55 93.48c35.61 1.1 47.29-13.91 47.29-13.91l-12.24-24.5 63.98-37.28 33.93 75.67V397.88c-40.61-104.62-212.05-25.05-212.05-25.05l0.04 0.08zM511.99 64C264.58 64 64 264.61 64 512.01S264.58 960 511.99 960C759.42 960 960 759.42 960 512.01S759.42 64 511.99 64zM288.28 276.57c29.5 0 53.42 23.92 53.42 53.42s-23.92 53.42-53.42 53.42-53.42-23.92-53.42-53.42 23.92-53.42 53.42-53.42z m54.52 298.3l-77.92 160.27-83.48-53.42 110.2-120.21c15.56-20.04 0-44.52 0-44.52l-81.25-70.11 35.63-48.97s38.96 30.05 81.8 72.34 15.02 104.62 15.02 104.62z m459.7 80.12s-6.68 94.61-99.04 92.39-92.41 0-92.41 0l-26.73 0.03s-15.56-21.72 0.58-54c0 0 33.93-5.58 39.48 13.36h38.96s37.83-7.23 40.61-66.79l-53.42 40.06-19.47-39.51s-70.69 56.75-128.57 52.87h-78.47s-51.2-13.34-53.97-80.7v-52.33h80.15s-8.36 82.38 38.96 78.47l1.1-105.75H370.05v-26.73h120.21l-0.55-52.87-17.27-0.55-48.97 48.42-32.28-28.93 60.65-60.11-1.68-27.28-76.24 70.11-46.19-46.19s61.21-39.51 81.25-132.45l68.44 17.27-11.11 36.16s298.27-109.07 336.13 81.25v243.75l0.06 0.05z" fill="#ff8198" p-id="2784"></path></svg>